<?xml version="1.0" standalone="no"?>
<!DOCTYPE svg PUBLIC "-//W3C//DTD SVG 20010904//EN"
 "http://www.w3.org/TR/2001/REC-SVG-20010904/DTD/svg10.dtd">
<svg version="1.0" xmlns="http://www.w3.org/2000/svg"
 width="700.000000pt" height="700.000000pt" viewBox="0 0 700.000000 700.000000"
 preserveAspectRatio="xMidYMid meet">
<metadata>
Created by potrace 1.14, written by Peter Selinger 2001-2017
</metadata>
<g transform="translate(0.000000,700.000000) scale(0.100000,-0.100000)"
fill="#000000" stroke="none">
<path d="M5280 6856 c0 -58 8 -66 72 -66 23 0 29 6 37 38 18 61 15 69 -26 76
-81 13 -83 12 -83 -48z"/>
<path d="M5488 6817 c-10 -23 -18 -47 -18 -52 0 -6 18 -20 40 -32 l40 -21 30
41 c16 22 30 44 30 49 0 8 -82 58 -96 58 -5 0 -17 -19 -26 -43z"/>
<path d="M5656 6691 l-38 -39 28 -36 c16 -20 32 -36 37 -36 4 0 25 12 47 26
l40 26 -18 30 c-9 16 -26 38 -38 49 -20 19 -20 19 -58 -20z"/>
<path d="M1270 6617 c-91 -26 -173 -97 -213 -186 -18 -39 -22 -70 -25 -212
l-4 -166 -130 -7 c-154 -7 -198 -17 -298 -64 -96 -45 -210 -156 -257 -252 -68
-136 -63 53 -63 -2491 0 -2273 0 -2308 20 -2371 53 -171 205 -311 378 -347 38
-8 629 -11 2042 -11 l1990 0 0 55 0 55 -1983 0 c-2163 0 -2042 -3 -2143 56
-63 37 -139 125 -166 192 l-23 57 -3 1888 -2 1887 2915 0 2915 0 0 -985 0
-985 55 0 55 0 -2 1423 -3 1422 -27 75 c-68 186 -220 327 -405 375 -32 9 -117
18 -190 22 l-132 6 -3 171 c-3 157 -5 175 -27 220 -96 195 -348 242 -514 97
-20 -18 -51 -62 -69 -99 -32 -64 -33 -68 -36 -229 l-4 -163 -643 0 -643 0 -4
163 c-3 150 -5 166 -30 218 -35 76 -85 130 -155 164 -49 24 -70 29 -138 29
-66 1 -90 -4 -135 -25 -68 -32 -122 -84 -158 -152 -26 -50 -27 -59 -30 -224
l-4 -173 -648 0 -648 0 -4 168 c-3 149 -6 173 -27 219 -27 62 -103 136 -166
164 -57 25 -157 33 -215 16z m-238 -849 c3 -151 5 -167 29 -218 32 -66 86
-123 154 -158 43 -23 62 -27 140 -27 75 0 98 4 140 24 63 32 124 93 156 156
22 46 24 64 27 218 l4 167 649 0 649 0 0 -155 c0 -191 14 -239 95 -320 73 -72
142 -99 245 -93 92 6 157 36 219 103 74 81 85 116 89 303 l4 162 643 0 643 0
4 -157 c6 -186 18 -228 85 -303 64 -71 129 -102 223 -108 102 -6 175 22 246
92 79 80 94 130 94 321 l0 155 124 0 c146 0 219 -18 312 -78 115 -74 187 -196
204 -343 6 -46 10 -222 10 -391 l0 -308 -2915 0 -2915 0 0 350 c0 222 4 368
11 402 35 163 172 310 329 352 33 9 103 15 177 15 l121 1 4 -162z"/>
<path d="M791 5809 c-104 -21 -204 -98 -251 -194 -25 -50 -25 -53 -28 -367
l-3 -318 2796 0 2796 0 -3 308 -3 307 -28 60 c-33 71 -95 138 -157 170 -46 23
-139 45 -192 45 l-28 0 0 -88 c0 -155 -44 -269 -139 -362 -218 -212 -568 -148
-699 128 -33 69 -36 84 -41 196 l-6 121 -530 0 -530 0 -6 -120 c-4 -88 -11
-134 -27 -173 -74 -188 -284 -309 -477 -273 -179 33 -318 165 -360 342 -8 35
-15 101 -15 147 l0 82 -530 0 -530 0 0 -72 c0 -170 -48 -298 -145 -386 -224
-205 -567 -134 -698 145 -28 61 -32 80 -37 188 l-5 120 -40 2 c-22 1 -60 -3
-84 -8z"/>
<path d="M5757 6512 c-37 -15 -38 -16 -32 -56 4 -23 10 -45 15 -49 4 -4 30 -5
59 -1 l51 7 -6 36 c-16 85 -22 90 -87 63z"/>
<path d="M5740 6255 l0 -55 55 0 55 0 0 55 0 55 -55 0 -55 0 0 -55z"/>
<path d="M2380 3790 l0 -300 305 0 305 0 0 300 0 300 -305 0 -305 0 0 -300z"/>
<path d="M3630 3790 l0 -300 305 0 305 0 0 300 0 300 -305 0 -305 0 0 -300z"/>
<path d="M4890 3790 l0 -300 305 0 305 0 0 300 0 300 -305 0 -305 0 0 -300z"/>
<path d="M1120 2660 l0 -300 305 0 305 0 0 300 0 300 -305 0 -305 0 0 -300z"/>
<path d="M2380 2660 l0 -300 305 0 305 0 0 300 0 300 -305 0 -305 0 0 -300z"/>
<path d="M3630 2660 l0 -300 305 0 305 0 0 300 0 300 -305 0 -305 0 0 -300z"/>
<path d="M4890 2750 c0 -115 2 -210 5 -210 2 0 41 25 85 55 147 100 309 169
493 209 27 6 27 8 27 81 l0 75 -305 0 -305 0 0 -210z"/>
<path d="M0 2670 l0 -60 55 0 55 0 0 60 0 60 -55 0 -55 0 0 -60z"/>
<path d="M5616 2709 c-300 -34 -567 -167 -771 -381 -233 -245 -348 -532 -348
-868 0 -234 57 -444 173 -638 144 -242 331 -401 629 -533 l34 -15 -92 -38
c-50 -21 -91 -45 -91 -52 0 -10 15 -50 36 -92 3 -5 320 132 337 146 25 22 22
42 -33 215 l-50 156 -43 -15 c-23 -8 -47 -16 -54 -19 -9 -3 -4 -29 17 -91 17
-48 30 -92 30 -97 0 -12 -34 -1 -129 44 -113 53 -204 115 -296 201 l-76 71 43
36 c23 20 56 48 72 62 l30 26 -48 64 c-60 81 -128 220 -158 324 -20 70 -23
101 -22 250 0 155 3 178 27 258 50 161 117 277 231 396 163 169 380 273 599
288 l87 6 0 95 0 95 93 -6 c182 -11 410 -93 566 -204 297 -211 481 -570 481
-936 0 -157 -48 -364 -116 -499 -136 -272 -396 -496 -676 -584 -36 -11 -58
-23 -58 -32 0 -27 23 -92 32 -92 26 0 173 57 252 98 416 214 676 642 676 1111
0 651 -483 1184 -1131 1251 -112 11 -152 11 -253 -1z"/>
<path d="M0 2460 l0 -60 55 0 55 0 0 60 0 60 -55 0 -55 0 0 -60z"/>
<path d="M0 2251 l0 -61 55 0 56 0 -3 58 -3 57 -52 3 -53 3 0 -60z"/>
<path d="M5690 1941 l0 -318 -39 -26 c-63 -42 -97 -134 -72 -200 8 -21 -2 -33
-126 -138 -74 -63 -141 -119 -150 -126 -13 -10 -11 -17 18 -52 18 -23 36 -41
40 -41 5 0 68 51 141 113 73 61 140 118 149 124 12 10 24 10 48 2 56 -20 120
-3 167 45 51 51 70 107 54 166 -12 46 -51 95 -91 116 l-29 15 0 319 0 320 -55
0 -55 0 0 -319z m102 -448 c18 -16 24 -58 10 -80 -12 -19 -55 -31 -80 -22 -42
16 -49 96 -10 112 27 11 62 7 80 -10z"/>
<path d="M0 2041 l0 -61 55 0 56 0 -3 58 -3 57 -52 3 -53 3 0 -60z"/>
<path d="M0 1825 l0 -55 55 0 55 0 0 55 0 55 -55 0 -55 0 0 -55z"/>
<path d="M1120 1525 l0 -305 305 0 305 0 0 305 0 305 -305 0 -305 0 0 -305z"/>
<path d="M2380 1525 l0 -305 305 0 305 0 -2 303 -3 302 -302 3 -303 2 0 -305z"/>
<path d="M3658 1823 l-28 -4 0 -172 c0 -95 3 -229 7 -299 l6 -128 299 0 298 0
0 305 0 305 -277 -1 c-153 -1 -290 -4 -305 -6z"/>
<path d="M0 1615 l0 -55 55 0 55 0 0 55 0 55 -55 0 -55 0 0 -55z"/>
<path d="M0 1405 l0 -55 55 0 55 0 0 55 0 55 -55 0 -55 0 0 -55z"/>
<path d="M0 1195 l0 -55 55 0 55 0 0 55 0 55 -55 0 -55 0 0 -55z"/>
<path d="M0 985 l0 -55 55 0 55 0 0 55 0 55 -55 0 -55 0 0 -55z"/>
<path d="M75 835 c-5 -2 -22 -6 -37 -9 l-27 -6 16 -53 c8 -28 17 -54 18 -56 2
-1 27 5 55 14 45 15 51 20 46 39 -4 11 -9 33 -12 49 -6 26 -26 33 -59 22z"/>
<path d="M138 636 c-21 -11 -38 -26 -38 -32 0 -5 14 -29 31 -52 35 -47 27 -48
96 11 l21 19 -26 39 c-15 21 -31 38 -37 38 -5 -1 -27 -11 -47 -23z"/>
<path d="M269 469 l-33 -42 30 -24 c57 -47 61 -47 94 -1 l31 43 -38 32 c-21
18 -41 33 -45 33 -3 0 -21 -19 -39 -41z"/>
<path d="M443 350 l-21 -49 55 -21 c31 -11 56 -19 58 -18 4 6 25 86 25 95 0 9
-75 44 -90 43 -3 0 -15 -23 -27 -50z"/>
<path d="M646 300 c-4 -28 -4 -55 -1 -60 3 -6 31 -10 61 -10 l54 0 0 55 0 55
-32 0 c-18 0 -42 3 -54 6 -19 5 -22 0 -28 -46z"/>
<path d="M860 285 l0 -55 55 0 55 0 0 55 0 55 -55 0 -55 0 0 -55z"/>
</g>
</svg>
